<?xml version="1.0" standalone="no"?><svg xmlns="http://www.w3.org/2000/svg" viewBox="0 0 1440 320"><path fill="white" fill-opacity="1" d="M0,32L24,74.7C48,117,96,203,144,208C192,213,240,139,288,112C336,85,384,107,432,122.7C480,139,528,149,576,170.7C624,192,672,224,720,202.7C768,181,816,107,864,117.3C912,128,960,224,1008,256C1056,288,1104,256,1152,234.7C1200,213,1248,203,1296,192C1344,181,1392,171,1416,165.3L1440,160L1440,320L1416,320C1392,320,1344,320,1296,320C1248,320,1200,320,1152,320C1104,320,1056,320,1008,320C960,320,912,320,864,320C816,320,768,320,720,320C672,320,624,320,576,320C528,320,480,320,432,320C384,320,336,320,288,320C240,320,192,320,144,320C96,320,48,320,24,320L0,320Z" style="--darkreader-inline-fill:#181a1b;" data-darkreader-inline-fill=""></path></svg>
